<mxfile host="app.diagrams.net" modified="2022-09-15T07:53:18.826Z" agent="5.0 (Macintosh; Intel Mac OS X 10_15_7) AppleWebKit/537.36 (KHTML, like Gecko) Chrome/105.0.0.0 Safari/537.36" etag="SXLZ2DIbTDT5kNkSGasv" version="20.3.0" type="github">
  <diagram id="dhz4NjtmWN4lnJv2wQA_" name="第 1 页">
    <mxGraphModel dx="1773" dy="1758" grid="1" gridSize="10" guides="1" tooltips="1" connect="1" arrows="1" fold="1" page="1" pageScale="1" pageWidth="827" pageHeight="1169" background="#F1FAEE" math="0" shadow="0">
      <root>
        <mxCell id="0" />
        <mxCell id="1" parent="0" />
        <mxCell id="2F01NzQ-fos6RmIVKhnN-1" value="&lt;font style=&quot;font-size: 24px;&quot;&gt;開發&lt;/font&gt;" style="whiteSpace=wrap;html=1;aspect=fixed;fillColor=#A8DADC;strokeColor=#457B9D;fontColor=#1D3557;" parent="1" vertex="1">
          <mxGeometry x="-10" y="-792.5" width="80" height="80" as="geometry" />
        </mxCell>
        <mxCell id="2F01NzQ-fos6RmIVKhnN-2" value="&lt;font style=&quot;font-size: 24px;&quot;&gt;測試&lt;/font&gt;" style="whiteSpace=wrap;html=1;aspect=fixed;fillColor=#A8DADC;strokeColor=#457B9D;fontColor=#1D3557;" parent="1" vertex="1">
          <mxGeometry x="290" y="-792.5" width="80" height="80" as="geometry" />
        </mxCell>
        <mxCell id="2F01NzQ-fos6RmIVKhnN-3" value="&lt;font style=&quot;font-size: 24px;&quot;&gt;正式&lt;/font&gt;" style="whiteSpace=wrap;html=1;aspect=fixed;fillColor=#A8DADC;strokeColor=#457B9D;fontColor=#1D3557;" parent="1" vertex="1">
          <mxGeometry x="620" y="-790" width="80" height="80" as="geometry" />
        </mxCell>
        <mxCell id="2F01NzQ-fos6RmIVKhnN-4" value="做即時修改&lt;br&gt;查看結果" style="text;html=1;align=center;verticalAlign=middle;resizable=0;points=[];autosize=1;strokeColor=none;fillColor=none;fontSize=24;fontColor=#1D3557;" parent="1" vertex="1">
          <mxGeometry x="-40" y="-699.5" width="140" height="70" as="geometry" />
        </mxCell>
        <mxCell id="2F01NzQ-fos6RmIVKhnN-7" value="" style="strokeWidth=2;html=1;shape=mxgraph.flowchart.annotation_1;align=left;pointerEvents=1;fontSize=24;fillColor=#A8DADC;strokeColor=#457B9D;fontColor=#1D3557;" parent="1" vertex="1">
          <mxGeometry x="247" y="-675" width="20" height="65" as="geometry" />
        </mxCell>
        <mxCell id="2F01NzQ-fos6RmIVKhnN-9" value="&lt;font style=&quot;font-size: 18px;&quot;&gt;docker-compose.yml&lt;/font&gt;" style="text;html=1;align=center;verticalAlign=middle;resizable=0;points=[];autosize=1;strokeColor=none;fillColor=none;fontSize=24;fontColor=#1D3557;" parent="1" vertex="1">
          <mxGeometry x="264" y="-697" width="190" height="40" as="geometry" />
        </mxCell>
        <mxCell id="2F01NzQ-fos6RmIVKhnN-10" value="&lt;font style=&quot;font-size: 18px;&quot;&gt;docker-compose-dev.yml&lt;/font&gt;" style="text;html=1;align=center;verticalAlign=middle;resizable=0;points=[];autosize=1;strokeColor=none;fillColor=none;fontSize=24;fontColor=#1D3557;" parent="1" vertex="1">
          <mxGeometry x="264" y="-630" width="220" height="40" as="geometry" />
        </mxCell>
        <mxCell id="2F01NzQ-fos6RmIVKhnN-17" value="container" style="swimlane;childLayout=stackLayout;horizontal=1;startSize=30;horizontalStack=0;rounded=1;fontSize=24;fontStyle=0;strokeWidth=2;resizeParent=0;resizeLast=1;shadow=0;dashed=0;align=center;spacing=3;glass=1;fillColor=#A8DADC;strokeColor=#457B9D;fontColor=#1D3557;" parent="1" vertex="1">
          <mxGeometry x="110" y="-1100" width="360" height="211" as="geometry" />
        </mxCell>
        <mxCell id="2F01NzQ-fos6RmIVKhnN-28" value="" style="endArrow=open;endFill=1;endSize=12;html=1;rounded=0;strokeColor=#457B9D;fontColor=#1D3557;fillColor=#A8DADC;spacing=20;strokeWidth=3;" parent="2F01NzQ-fos6RmIVKhnN-17" edge="1">
          <mxGeometry width="160" relative="1" as="geometry">
            <mxPoint x="90" y="100" as="sourcePoint" />
            <mxPoint x="250" y="100" as="targetPoint" />
          </mxGeometry>
        </mxCell>
        <mxCell id="2F01NzQ-fos6RmIVKhnN-18" value=" API                         Redis" style="align=left;strokeColor=none;fillColor=none;spacingLeft=4;fontSize=30;verticalAlign=top;resizable=0;rotatable=0;part=1;fontColor=#1D3557;" parent="2F01NzQ-fos6RmIVKhnN-17" vertex="1">
          <mxGeometry y="30" width="360" height="181" as="geometry" />
        </mxCell>
        <mxCell id="2F01NzQ-fos6RmIVKhnN-23" value="" style="verticalLabelPosition=bottom;verticalAlign=top;html=1;strokeWidth=2;shape=mxgraph.arrows2.arrow;dy=0.6;dx=40;notch=0;strokeColor=#457B9D;fontColor=#1D3557;fillColor=#A8DADC;" parent="2F01NzQ-fos6RmIVKhnN-17" vertex="1">
          <mxGeometry y="211" width="360" as="geometry" />
        </mxCell>
        <mxCell id="2F01NzQ-fos6RmIVKhnN-29" value="有mount volume" style="shape=partialRectangle;fillColor=none;align=left;verticalAlign=middle;strokeColor=none;spacingLeft=34;rotatable=0;points=[[0,0.5],[1,0.5]];portConstraint=eastwest;dropTarget=0;fontColor=#FF3333;fontSize=18;" parent="1" vertex="1">
          <mxGeometry x="257" y="-590" width="90" height="30" as="geometry" />
        </mxCell>
        <mxCell id="2F01NzQ-fos6RmIVKhnN-30" value="" style="shape=partialRectangle;top=0;left=0;bottom=0;fillColor=none;stokeWidth=1;dashed=1;align=left;verticalAlign=middle;spacingLeft=4;spacingRight=4;overflow=hidden;rotatable=0;points=[];portConstraint=eastwest;part=1;strokeColor=#457B9D;fontColor=#1D3557;" parent="2F01NzQ-fos6RmIVKhnN-29" vertex="1" connectable="0">
          <mxGeometry width="30" height="30" as="geometry" />
        </mxCell>
        <mxCell id="2F01NzQ-fos6RmIVKhnN-35" value="" style="strokeWidth=2;html=1;shape=mxgraph.flowchart.annotation_1;align=left;pointerEvents=1;fontSize=24;fillColor=#A8DADC;strokeColor=#457B9D;fontColor=#1D3557;" parent="1" vertex="1">
          <mxGeometry x="580" y="-678" width="20" height="68" as="geometry" />
        </mxCell>
        <mxCell id="2F01NzQ-fos6RmIVKhnN-36" value="&lt;font style=&quot;font-size: 18px;&quot;&gt;docker-compose.yml&lt;/font&gt;" style="text;html=1;align=center;verticalAlign=middle;resizable=0;points=[];autosize=1;strokeColor=none;fillColor=none;fontSize=24;fontColor=#1D3557;" parent="1" vertex="1">
          <mxGeometry x="597" y="-700" width="190" height="40" as="geometry" />
        </mxCell>
        <mxCell id="2F01NzQ-fos6RmIVKhnN-37" value="&lt;font style=&quot;font-size: 18px;&quot;&gt;docker-compose-dev.yml&lt;/font&gt;" style="text;html=1;align=center;verticalAlign=middle;resizable=0;points=[];autosize=1;strokeColor=none;fillColor=none;fontSize=24;fontColor=#1D3557;" parent="1" vertex="1">
          <mxGeometry x="597" y="-630" width="220" height="40" as="geometry" />
        </mxCell>
        <mxCell id="2F01NzQ-fos6RmIVKhnN-38" value="沒有mount volume&#xa;直接使用image" style="shape=partialRectangle;fillColor=none;align=left;verticalAlign=middle;strokeColor=none;spacingLeft=34;rotatable=0;points=[[0,0.5],[1,0.5]];portConstraint=eastwest;dropTarget=0;fontColor=#FF3333;fontSize=18;" parent="1" vertex="1">
          <mxGeometry x="590" y="-585" width="90" height="30" as="geometry" />
        </mxCell>
        <mxCell id="2F01NzQ-fos6RmIVKhnN-39" value="" style="shape=partialRectangle;top=0;left=0;bottom=0;fillColor=none;stokeWidth=1;dashed=1;align=left;verticalAlign=middle;spacingLeft=4;spacingRight=4;overflow=hidden;rotatable=0;points=[];portConstraint=eastwest;part=1;strokeColor=#457B9D;fontColor=#1D3557;" parent="2F01NzQ-fos6RmIVKhnN-38" vertex="1" connectable="0">
          <mxGeometry width="30" height="30" as="geometry" />
        </mxCell>
        <mxCell id="2F01NzQ-fos6RmIVKhnN-40" value="" style="verticalLabelPosition=bottom;verticalAlign=top;html=1;strokeWidth=2;shape=mxgraph.arrows2.arrow;dy=0.5;dx=26;notch=0;strokeColor=#457B9D;fontSize=18;fontColor=#FF3333;fillColor=#A8DADC;" parent="1" vertex="1">
          <mxGeometry x="158" y="-710" width="70" height="20" as="geometry" />
        </mxCell>
        <mxCell id="2F01NzQ-fos6RmIVKhnN-41" value="" style="verticalLabelPosition=bottom;verticalAlign=top;html=1;strokeWidth=2;shape=mxgraph.arrows2.arrow;dy=0.5;dx=26;notch=0;strokeColor=#457B9D;fontSize=18;fontColor=#FF3333;fillColor=#A8DADC;" parent="1" vertex="1">
          <mxGeometry x="480" y="-710" width="70" height="20" as="geometry" />
        </mxCell>
        <mxCell id="2F01NzQ-fos6RmIVKhnN-45" value="" style="endArrow=none;html=1;rounded=0;dashed=1;dashPattern=1 2;strokeColor=#457B9D;strokeWidth=3;fontSize=18;fontColor=#FF3333;fillColor=#A8DADC;" parent="1" edge="1">
          <mxGeometry relative="1" as="geometry">
            <mxPoint x="20" y="-620" as="sourcePoint" />
            <mxPoint x="180" y="-620" as="targetPoint" />
          </mxGeometry>
        </mxCell>
        <mxCell id="2F01NzQ-fos6RmIVKhnN-46" value="N" style="resizable=0;html=1;align=right;verticalAlign=bottom;strokeColor=#457B9D;fontSize=18;fontColor=#FF3333;fillColor=#A8DADC;" parent="2F01NzQ-fos6RmIVKhnN-45" connectable="0" vertex="1">
          <mxGeometry x="1" relative="1" as="geometry">
            <mxPoint x="-60" y="-2" as="offset" />
          </mxGeometry>
        </mxCell>
        <mxCell id="2F01NzQ-fos6RmIVKhnN-47" value="yml檔有執行&lt;br&gt;command:npm run dev" style="text;html=1;align=center;verticalAlign=middle;resizable=0;points=[];autosize=1;strokeColor=none;fillColor=none;fontSize=18;fontColor=#FF3333;" parent="1" vertex="1">
          <mxGeometry x="-60" y="-617.5" width="210" height="60" as="geometry" />
        </mxCell>
        <mxCell id="2F01NzQ-fos6RmIVKhnN-50" value="&lt;font color=&quot;#00007a&quot;&gt;1.指定兩個yml檔，將容器起起來&lt;/font&gt;" style="text;html=1;align=center;verticalAlign=middle;resizable=0;points=[];autosize=1;strokeColor=none;fillColor=none;fontSize=18;fontColor=#FF3333;" parent="1" vertex="1">
          <mxGeometry x="210" y="-550" width="280" height="40" as="geometry" />
        </mxCell>
        <mxCell id="2F01NzQ-fos6RmIVKhnN-51" value="2.修改code的內容&lt;br&gt;&amp;nbsp; &amp;nbsp; 同時開著log查看" style="text;html=1;align=center;verticalAlign=middle;resizable=0;points=[];autosize=1;strokeColor=none;fillColor=none;fontSize=18;fontColor=#00007A;" parent="1" vertex="1">
          <mxGeometry x="-62" y="-552.5" width="180" height="60" as="geometry" />
        </mxCell>
        <mxCell id="2F01NzQ-fos6RmIVKhnN-52" value="3.重新build過image" style="text;html=1;align=center;verticalAlign=middle;resizable=0;points=[];autosize=1;strokeColor=none;fillColor=none;fontSize=18;fontColor=#00007A;" parent="1" vertex="1">
          <mxGeometry x="210" y="-510" width="180" height="40" as="geometry" />
        </mxCell>
        <mxCell id="2F01NzQ-fos6RmIVKhnN-53" value="4.把已重build過的image檔傳到docker hub" style="text;html=1;align=center;verticalAlign=middle;resizable=0;points=[];autosize=1;strokeColor=none;fillColor=none;fontSize=18;fontColor=#00007A;" parent="1" vertex="1">
          <mxGeometry x="210" y="-470" width="360" height="40" as="geometry" />
        </mxCell>
        <mxCell id="2F01NzQ-fos6RmIVKhnN-55" value="5.將準備好的兩個yml檔先檢查看是否有錯&lt;br&gt;dc -f&amp;nbsp;docker-compose-prod.yaml config" style="text;html=1;align=center;verticalAlign=middle;resizable=0;points=[];autosize=1;strokeColor=none;fillColor=none;fontSize=18;fontColor=#00007A;" parent="1" vertex="1">
          <mxGeometry x="594" y="-540" width="350" height="60" as="geometry" />
        </mxCell>
        <mxCell id="2F01NzQ-fos6RmIVKhnN-56" value="6.檢查沒問題將容器起起來" style="text;html=1;align=center;verticalAlign=middle;resizable=0;points=[];autosize=1;strokeColor=none;fillColor=none;fontSize=18;fontColor=#00007A;" parent="1" vertex="1">
          <mxGeometry x="589" y="-478" width="240" height="40" as="geometry" />
        </mxCell>
        <mxCell id="2F01NzQ-fos6RmIVKhnN-57" value="7.檢查log" style="text;html=1;align=center;verticalAlign=middle;resizable=0;points=[];autosize=1;strokeColor=none;fillColor=none;fontSize=18;fontColor=#00007A;" parent="1" vertex="1">
          <mxGeometry x="591" y="-438" width="100" height="40" as="geometry" />
        </mxCell>
      </root>
    </mxGraphModel>
  </diagram>
</mxfile>
